<?xml version="1.0" encoding="utf-8"?>
<!-- Generator: Adobe Illustrator 26.0.1, SVG Export Plug-In . SVG Version: 6.00 Build 0)  -->
<svg version="1.1" id="Camada_1" xmlns="http://www.w3.org/2000/svg" xmlns:xlink="http://www.w3.org/1999/xlink" x="0px" y="0px"
	 viewBox="0 0 68 80" style="enable-background:new 0 0 68 80;" xml:space="preserve">
<g>
	<g>
		<path d="M13.38,72.02l3.43,0.38c-0.22,2.06-1.02,3.75-2.38,5.08c-1.37,1.33-3.17,1.99-5.39,1.99c-1.88,0-3.4-0.47-4.57-1.41
			c-1.17-0.94-2.07-2.22-2.7-3.84c-0.63-1.61-0.95-3.39-0.95-5.34c0-3.13,0.74-5.67,2.23-7.63c1.48-1.96,3.53-2.94,6.12-2.94
			c2.04,0,3.73,0.63,5.08,1.88c1.35,1.25,2.21,3.05,2.56,5.39l-3.43,0.36c-0.63-3.1-2.03-4.65-4.18-4.65
			c-1.38,0-2.46,0.64-3.23,1.93c-0.77,1.29-1.15,3.16-1.15,5.6c0,2.49,0.41,4.37,1.23,5.63c0.82,1.27,1.91,1.9,3.26,1.9
			c1.08,0,2.01-0.43,2.77-1.28C12.85,74.22,13.28,73.2,13.38,72.02z"/>
		<path d="M25.64,79.47c-2.25,0-3.96-0.81-5.15-2.42c-1.18-1.61-1.78-3.47-1.78-5.55c0-2.25,0.65-4.12,1.96-5.61
			c1.31-1.49,3.04-2.24,5.18-2.24c2.04,0,3.71,0.73,5.02,2.18c1.31,1.45,1.96,3.34,1.96,5.67c0,2.4-0.68,4.33-2.04,5.78
			C29.45,78.74,27.72,79.47,25.64,79.47z M25.76,76.64c2.31,0,3.46-1.72,3.46-5.16c0-1.55-0.28-2.78-0.83-3.68
			c-0.55-0.9-1.4-1.35-2.54-1.35c-1.18,0-2.06,0.46-2.63,1.39c-0.57,0.93-0.86,2.16-0.86,3.69c0,1.65,0.3,2.92,0.91,3.79
			C23.87,76.2,24.7,76.64,25.76,76.64z"/>
		<path d="M48.62,79.15h-3.2v-3.07c-0.88,2.26-2.38,3.38-4.48,3.38c-1.87,0-3.29-0.78-4.29-2.33c-0.99-1.55-1.49-3.49-1.49-5.79
			c0-2.15,0.52-4.02,1.55-5.61c1.03-1.59,2.5-2.39,4.41-2.39c1.96,0,3.31,0.89,4.08,2.68l0-7.4h3.43L48.62,79.15z M45.19,70.19
			c0-1.23-0.29-2.19-0.88-2.88c-0.59-0.69-1.35-1.03-2.28-1.03c-1.01,0-1.81,0.44-2.38,1.32c-0.57,0.88-0.86,2.2-0.86,3.96
			c0,3.39,1.06,5.08,3.19,5.08c0.84,0,1.59-0.36,2.23-1.09c0.65-0.73,0.97-1.66,0.97-2.79V70.19z"/>
		<path d="M62.38,74.31l3.1,0.42c-0.4,1.37-1.18,2.51-2.35,3.4c-1.16,0.89-2.62,1.34-4.38,1.34c-2.11,0-3.8-0.71-5.08-2.12
			c-1.28-1.41-1.93-3.33-1.93-5.75c0-2.3,0.65-4.2,1.94-5.7s3.05-2.26,5.27-2.26c2.17,0,3.84,0.74,5.02,2.23
			c1.18,1.48,1.78,3.39,1.78,5.72l-0.02,0.39H55.31c0,1.03,0.1,1.86,0.29,2.48c0.2,0.62,0.58,1.16,1.17,1.62
			c0.58,0.46,1.31,0.69,2.18,0.69C60.65,76.78,61.79,75.95,62.38,74.31z M62.17,69.76c-0.01-1.09-0.34-1.99-0.99-2.68
			c-0.65-0.69-1.45-1.04-2.4-1.04c-0.94,0-1.73,0.32-2.36,0.97c-0.63,0.65-1,1.56-1.11,2.75L62.17,69.76z"/>
	</g>
	<g>
		<g>
			<path d="M13.62,37.54c-1.22-0.35-2.02-0.72-2.41-1.11c-0.57-0.52-0.99-1.37-1.26-2.56c-0.02-0.07-0.03-0.14-0.05-0.21h0
				L8.33,17.3L6.75,33.64h0c-0.04,0.27-0.08,0.51-0.12,0.72c-0.23,1.08-0.65,1.88-1.27,2.4c-0.48,0.41-1.15,0.72-2.03,0.92
				c-0.87,0.2-1.71,0.34-2.51,0.42l0,1.98l15.19,0l0-1.98C15.64,38.08,14.84,37.89,13.62,37.54z"/>
			<path d="M65,37.87c-0.69-0.13-1.26-0.32-1.72-0.56c-0.62-0.33-1.24-0.77-1.87-1.3c-0.63-0.53-1.33-1.35-2.11-2.47
				c-1.79-2.53-3.29-4.67-4.52-6.44c-1.23-1.76-2.77-3.94-4.63-6.52c1.34-0.41,2.57-0.91,3.68-1.49c1.11-0.59,2.07-1.28,2.86-2.08
				c0.87-0.85,1.52-1.87,1.96-3.04c0.44-1.17,0.66-2.52,0.66-4.04c0-1.69-0.33-3.13-0.98-4.33c-0.65-1.2-1.53-2.17-2.62-2.91
				c-1.13-0.76-2.4-1.31-3.79-1.66c-1.4-0.34-2.89-0.52-4.48-0.52l-2.8,0v2.29l0.63,0c2.39,0,4.23,0.7,5.54,2.1
				c1.31,1.4,1.96,3.3,1.96,5.69c0,2.82-0.81,5.05-2.44,6.69c-1.54,1.55-3.43,2.37-5.69,2.45v2.44c2.11,2.85,4.07,5.62,5.87,8.3
				c1.81,2.69,3.84,5.89,6.08,9.59l10.13,0V38.1C66.26,38.08,65.69,38,65,37.87z"/>
			<path d="M43.98,37.9c-0.8-0.11-1.35-0.23-1.67-0.36c-0.64-0.26-1.05-0.64-1.25-1.13c-0.19-0.49-0.29-1.06-0.29-1.71v-1.48
				l0-11.06v-2.4l0-16.94V1.03c0-0.27-0.21-0.49-0.47-0.49l-3.64,0l-1.53,0H35.1c-0.02,0.33-0.15,1-0.38,1.99s-0.53,1.95-0.86,2.86
				L25.1,29.02c-0.16,0.42-0.72,0.42-0.88,0L14,0.85c-0.07-0.19-0.24-0.32-0.44-0.32l-12.03,0c-0.26,0-0.47,0.22-0.47,0.49l0,0.97
				c0,0.27,0.21,0.49,0.46,0.49C5.17,2.5,8.93,4.68,9.47,5.01c0.04,0.03,0.41,0.23,0.61,0.62l11.91,33.49
				c0.07,0.19,0.24,0.32,0.44,0.32h0.68c0.19,0,0.36-0.12,0.44-0.31L34.22,11.1c0.19-0.5,0.91-0.36,0.91,0.18v0l0,23.41
				c0,0.72-0.12,1.32-0.36,1.78c-0.24,0.46-0.62,0.82-1.15,1.06c-0.32,0.15-0.88,0.27-1.68,0.36c-0.57,0.07-1.04,0.12-1.42,0.16
				c-0.24,0.02-0.42,0.24-0.42,0.49l0,1.03c0,0.27,0.21,0.49,0.47,0.49l14.97,0c0.26,0,0.47-0.22,0.47-0.49v-1.02
				c0-0.26-0.19-0.48-0.44-0.49C45.1,38.04,44.57,37.98,43.98,37.9z"/>
		</g>
	</g>
</g>
</svg>
