<svg width="41" height="44" viewBox="0 0 41 44" fill="none" xmlns="http://www.w3.org/2000/svg">
	<path d="M0 23.0001V25.0001H10V23.0001C8 23.0001 6.83333 22.3334 6.5 21.5001L5 12.0001H4.5C4.16667 14.6668 3.5 20.3001 3.5 21.5001C3.5 22.7001 1.16667 23.0001 0 23.0001Z" fill="#010A13"/>
	<path d="M7 8.00009C5 2.40009 1.5 1.66675 0 2.00009V0H8L14 17L21 0H28C30.4 0 32.3333 0.666667 33 1C33.8333 1.33336 35.6 2.80009 36 6.00011C36.4 9.20013 32.8333 11.6667 31 12.5C32.1667 14.3333 34.8 18.5 36 20.5C37.2 22.5 39.1667 23.3333 40 23.5V25.0001H33L26.5 14.5V11.5C28.1667 11.5 31.4 10.4001 31 6.00011C30.6 1.60011 25.1667 1.50009 22.5 2.00009L14 24.5001H13C11.8333 21.3334 9 13.6001 7 8.00009Z" fill="#010A13"/>
	<path d="M18.5 23.0001C17.8675 23.6326 16.6667 23.6667 16 23.5V25.0001H26V23.5C24 23.8999 23.1667 22.3333 23 21.5V12C21.6667 15.3333 19.5 22 18.5 23.0001Z" fill="#010A13"/>
	<path d="M39.5507 43.9661H34.7987C33.7133 43.9661 32.87 43.6654 32.2687 43.0641C31.682 42.4628 31.3887 41.6268 31.3887 40.5561V36.1561C31.3887 35.0708 31.682 34.2348 32.2687 33.6481C32.87 33.0468 33.7133 32.7461 34.7987 32.7461H36.6027C37.688 32.7461 38.5313 33.0468 39.1327 33.6481C39.734 34.2348 40.0347 35.0708 40.0347 36.1561V38.9501C40.0347 39.2141 39.9027 39.3461 39.6387 39.3461H33.7427C33.5813 39.3461 33.5007 39.4194 33.5007 39.5661V40.5121C33.5007 41.5828 34.036 42.1181 35.1067 42.1181H39.5507C39.8147 42.1181 39.9467 42.2501 39.9467 42.5141V43.6141C39.9467 43.8488 39.8147 43.9661 39.5507 43.9661ZM33.7427 37.8501H37.6807C37.8273 37.8501 37.9007 37.7768 37.9007 37.6301V36.2221C37.9007 35.6648 37.776 35.2614 37.5267 35.0121C37.2773 34.7481 36.874 34.6161 36.3167 34.6161H35.1067C34.5493 34.6161 34.146 34.7481 33.8967 35.0121C33.6473 35.2614 33.5227 35.6648 33.5227 36.2221V37.6301C33.5227 37.7768 33.596 37.8501 33.7427 37.8501Z" fill="#010A13"/>
	<path d="M24.402 43.966H23.28C22.224 43.966 21.41 43.6727 20.838 43.086C20.2806 42.4847 20.002 41.6413 20.002 40.556V36.156C20.002 35.056 20.2806 34.2127 20.838 33.626C21.41 33.0393 22.224 32.746 23.28 32.746H24.402C25.5313 32.746 26.2646 33.1347 26.602 33.912H26.69V28.874C26.69 28.6247 26.8146 28.5 27.064 28.5H28.472C28.7213 28.5 28.846 28.6247 28.846 28.874V43.592C28.846 43.8413 28.7213 43.966 28.472 43.966H27.064C26.8146 43.966 26.69 43.8413 26.69 43.592V42.8H26.602C26.2646 43.5773 25.5313 43.966 24.402 43.966ZM26.69 40.226V36.486C26.69 35.2393 26.0886 34.616 24.886 34.616H23.72C22.664 34.616 22.136 35.1587 22.136 36.244V40.468C22.136 41.5533 22.664 42.096 23.72 42.096H24.886C26.0886 42.096 26.69 41.4727 26.69 40.226Z" fill="#010A13"/>
	<path d="M14.262 43.9661H12.326C11.2407 43.9661 10.3973 43.6654 9.79602 43.0641C9.20935 42.4628 8.91602 41.6268 8.91602 40.5561V36.1561C8.91602 35.0708 9.20935 34.2348 9.79602 33.6481C10.3973 33.0468 11.2407 32.7461 12.326 32.7461H14.262C15.3327 32.7461 16.1687 33.0468 16.77 33.6481C17.386 34.2348 17.694 35.0708 17.694 36.1561V40.5561C17.694 41.6268 17.386 42.4628 16.77 43.0641C16.1687 43.6654 15.3327 43.9661 14.262 43.9661ZM12.634 42.0961H13.976C15.032 42.0961 15.56 41.5608 15.56 40.4901V36.2221C15.56 35.1514 15.032 34.6161 13.976 34.6161H12.634C12.0767 34.6161 11.6733 34.7481 11.424 35.0121C11.1747 35.2614 11.05 35.6648 11.05 36.2221V40.4901C11.05 41.0474 11.1747 41.4581 11.424 41.7221C11.6733 41.9714 12.0767 42.0961 12.634 42.0961Z" fill="#010A13"/>
	<path d="M7.04 42.4701V43.6141C7.04 43.8488 6.908 43.9661 6.644 43.9661H3.41C2.32467 43.9661 1.48133 43.6654 0.88 43.0641C0.293333 42.4628 0 41.6268 0 40.5561V36.1561C0 35.0708 0.293333 34.2348 0.88 33.6481C1.48133 33.0468 2.32467 32.7461 3.41 32.7461H6.644C6.908 32.7461 7.04 32.8708 7.04 33.1201V34.2641C7.04 34.4988 6.908 34.6161 6.644 34.6161H3.718C2.662 34.6161 2.134 35.1588 2.134 36.2441V40.4681C2.134 41.5534 2.662 42.0961 3.718 42.0961H6.644C6.908 42.0961 7.04 42.2208 7.04 42.4701Z" fill="#010A13"/>
</svg>